HIERARCHY
ROOT Hips
{
	OFFSET 0.000000 83.214638 0.000000
	CHANNELS 6 Xposition Yposition Zposition Xrotation Yrotation Zrotation
	JOINT Pelvis
	{
		OFFSET 0.000000 0.000000 0.000000
		CHANNELS 3 Xrotation Yrotation Zrotation
		JOINT LeftUpLeg
		{
			OFFSET 8.479700 -4.795502 -0.379100
			CHANNELS 3 Xrotation Yrotation Zrotation
			JOINT LeftLeg
			{
				OFFSET 0.024144 -32.555107 0.112900
				CHANNELS 3 Xrotation Yrotation Zrotation
				JOINT LeftFoot
				{
					OFFSET -0.024144 -32.638630 -3.012600
					CHANNELS 3 Xrotation Yrotation Zrotation
					JOINT LeftToeBase
					{
						OFFSET 0.970200 -13.225400 11.864200
						CHANNELS 3 Xrotation Yrotation Zrotation
						End Site
						{
							OFFSET 0.000000 12.319262 0.000000
						}
					}
					JOINT LFootTongue
					{
						OFFSET 1.142400 -1.059800 6.665200
						CHANNELS 3 Xrotation Yrotation Zrotation
						End Site
						{
							OFFSET 0.000000 12.319262 0.000000
						}
					}
				}
				JOINT LeftPantLeg
				{
					OFFSET 0.918482 -16.533964 -2.284700
					CHANNELS 3 Xrotation Yrotation Zrotation
					End Site
					{
						OFFSET 0.350399 24.744368 0.000000
					}
				}
			}
		}
		JOINT RightUpLeg
		{
			OFFSET -8.479700 -4.795502 -0.379100
			CHANNELS 3 Xrotation Yrotation Zrotation
			JOINT RightLeg
			{
				OFFSET -0.023144 -32.555092 0.112900
				CHANNELS 3 Xrotation Yrotation Zrotation
				JOINT RightFoot
				{
					OFFSET 0.023144 -32.638641 -3.012700
					CHANNELS 3 Xrotation Yrotation Zrotation
					JOINT RightToeBase
					{
						OFFSET -0.970200 -13.225400 11.864200
						CHANNELS 3 Xrotation Yrotation Zrotation
						End Site
						{
							OFFSET 0.000000 12.319244 0.000000
						}
					}
					JOINT RFootTongue
					{
						OFFSET -1.142200 -1.059800 6.665200
						CHANNELS 3 Xrotation Yrotation Zrotation
						End Site
						{
							OFFSET 0.000000 12.319243 0.000000
						}
					}
				}
				JOINT RightPantLeg
				{
					OFFSET -0.919482 -16.533978 -2.284800
					CHANNELS 3 Xrotation Yrotation Zrotation
					End Site
					{
						OFFSET -0.350400 24.744419 0.000000
					}
				}
			}
		}
	}
	JOINT Spine
	{
		OFFSET 0.000000 7.722000 1.166200
		CHANNELS 3 Xrotation Yrotation Zrotation
		JOINT Spine1
		{
			OFFSET 0.000000 12.024101 0.248800
			CHANNELS 3 Xrotation Yrotation Zrotation
			JOINT Spine2
			{
				OFFSET 0.000000 11.502998 -0.491200
				CHANNELS 3 Xrotation Yrotation Zrotation
				JOINT Neck
				{
					OFFSET 0.000000 18.430702 -3.123100
					CHANNELS 3 Xrotation Yrotation Zrotation
					JOINT Head
					{
						OFFSET 0.000000 9.051102 1.034000
						CHANNELS 3 Xrotation Yrotation Zrotation
						JOINT HairB
						{
							OFFSET 0.208400 24.786102 24.822300
							CHANNELS 3 Xrotation Yrotation Zrotation
							End Site
							{
								OFFSET 0.000000 32.263779 0.000000
							}
						}
						JOINT HairA
						{
							OFFSET -7.081100 24.428299 23.196600
							CHANNELS 3 Xrotation Yrotation Zrotation
							End Site
							{
								OFFSET 0.000000 32.263779 0.000000
							}
						}
						JOINT Hat
						{
							OFFSET 16.728800 15.048294 -15.439601
							CHANNELS 3 Xrotation Yrotation Zrotation
							End Site
							{
								OFFSET 0.000000 32.263779 0.000000
							}
						}
					}
				}
				JOINT LeftShoulder
				{
					OFFSET 6.197800 13.665199 -4.064700
					CHANNELS 3 Xrotation Yrotation Zrotation
					JOINT LeftArm
					{
						OFFSET 7.778100 -0.187103 -1.709300
						CHANNELS 3 Xrotation Yrotation Zrotation
						JOINT LeftForeArm
						{
							OFFSET 22.049376 0.000000 0.000000
							CHANNELS 3 Xrotation Yrotation Zrotation
							JOINT LeftHand
							{
								OFFSET 23.009392 0.000000 0.000000
								CHANNELS 3 Xrotation Yrotation Zrotation
								JOINT LeftHandThumb1
								{
									OFFSET 3.507191 -2.063065 3.133727
									CHANNELS 3 Xrotation Yrotation Zrotation
									JOINT LeftHandThumb2
									{
										OFFSET 3.101337 -1.790558 1.790558
										CHANNELS 3 Xrotation Yrotation Zrotation
										JOINT LeftHandThumb3
										{
											OFFSET 3.058640 -1.765907 1.765906
											CHANNELS 3 Xrotation Yrotation Zrotation
											End Site
											{
												OFFSET -0.415260 3.926476 -0.049563
											}
										}
									}
								}
								JOINT LeftHandIndex1
								{
									OFFSET 11.334419 -0.901459 3.706815
									CHANNELS 3 Xrotation Yrotation Zrotation
									JOINT LeftHandIndex2
									{
										OFFSET 3.283112 0.000000 0.000000
										CHANNELS 3 Xrotation Yrotation Zrotation
										JOINT LeftHandIndex3
										{
											OFFSET 3.323853 0.000000 0.000000
											CHANNELS 3 Xrotation Yrotation Zrotation
											End Site
											{
												OFFSET -1.135597 3.097809 0.402452
											}
										}
									}
								}
								JOINT LeftHandMiddle1
								{
									OFFSET 11.335861 0.000000 0.000000
									CHANNELS 3 Xrotation Yrotation Zrotation
									JOINT LeftHandMiddle2
									{
										OFFSET 3.410492 0.000000 0.000000
										CHANNELS 3 Xrotation Yrotation Zrotation
										JOINT LeftHandMiddle3
										{
											OFFSET 3.312172 0.000000 0.000000
											CHANNELS 3 Xrotation Yrotation Zrotation
											End Site
											{
												OFFSET -1.150200 3.080154 0.400270
											}
										}
									}
								}
								JOINT LeftHandRing1
								{
									OFFSET 11.514786 -0.013176 -3.003090
									CHANNELS 3 Xrotation Yrotation Zrotation
									JOINT LeftHandRing2
									{
										OFFSET 3.053307 0.000000 0.000000
										CHANNELS 3 Xrotation Yrotation Zrotation
										JOINT LeftHandRing3
										{
											OFFSET 3.295807 0.000000 0.000000
											CHANNELS 3 Xrotation Yrotation Zrotation
											End Site
											{
												OFFSET -1.281006 3.013344 0.375733
											}
										}
									}
								}
								JOINT LeftHandPinky1
								{
									OFFSET 10.518692 -0.960396 -5.730441
									CHANNELS 3 Xrotation Yrotation Zrotation
									JOINT LeftHandPinky2
									{
										OFFSET 2.861649 0.000000 0.000000
										CHANNELS 3 Xrotation Yrotation Zrotation
										JOINT LeftHandPinky3
										{
											OFFSET 2.863380 0.000000 0.000000
											CHANNELS 3 Xrotation Yrotation Zrotation
											End Site
											{
												OFFSET -0.843597 2.711159 0.369971
											}
										}
									}
								}
							}
							JOINT LSleeve
							{
								OFFSET 6.676277 -0.344902 -1.011730
								CHANNELS 3 Xrotation Yrotation Zrotation
								End Site
								{
									OFFSET 0.000000 14.885353 0.000000
								}
							}
						}
					}
				}
				JOINT RightShoulder
				{
					OFFSET -6.197800 13.665199 -4.064700
					CHANNELS 3 Xrotation Yrotation Zrotation
					JOINT RightArm
					{
						OFFSET -7.778100 -0.187103 -1.709300
						CHANNELS 3 Xrotation Yrotation Zrotation
						JOINT RightForeArm
						{
							OFFSET -22.049376 0.000000 0.000000
							CHANNELS 3 Xrotation Yrotation Zrotation
							JOINT RightHand
							{
								OFFSET -23.009392 0.000000 0.000000
								CHANNELS 3 Xrotation Yrotation Zrotation
								JOINT RightHandThumb1
								{
									OFFSET -3.507191 -2.063065 3.133727
									CHANNELS 3 Xrotation Yrotation Zrotation
									JOINT RightHandThumb2
									{
										OFFSET -3.101337 -1.790558 1.790558
										CHANNELS 3 Xrotation Yrotation Zrotation
										JOINT RightHandThumb3
										{
											OFFSET -3.058640 -1.765907 1.765906
											CHANNELS 3 Xrotation Yrotation Zrotation
											End Site
											{
												OFFSET 0.415260 3.926476 -0.049563
											}
										}
									}
								}
								JOINT RightHandIndex1
								{
									OFFSET -11.334419 -0.901459 3.706815
									CHANNELS 3 Xrotation Yrotation Zrotation
									JOINT RightHandIndex2
									{
										OFFSET -3.283112 0.000000 0.000000
										CHANNELS 3 Xrotation Yrotation Zrotation
										JOINT RightHandIndex3
										{
											OFFSET -3.323853 0.000000 0.000000
											CHANNELS 3 Xrotation Yrotation Zrotation
											End Site
											{
												OFFSET 1.135597 3.097809 0.402452
											}
										}
									}
								}
								JOINT RightHandMiddle1
								{
									OFFSET -11.335861 0.000000 0.000000
									CHANNELS 3 Xrotation Yrotation Zrotation
									JOINT RightHandMiddle2
									{
										OFFSET -3.410492 0.000000 0.000000
										CHANNELS 3 Xrotation Yrotation Zrotation
										JOINT RightHandMiddle3
										{
											OFFSET -3.312172 0.000000 0.000000
											CHANNELS 3 Xrotation Yrotation Zrotation
											End Site
											{
												OFFSET 1.150200 3.080154 0.400270
											}
										}
									}
								}
								JOINT RightHandRing1
								{
									OFFSET -11.514786 -0.013176 -3.003090
									CHANNELS 3 Xrotation Yrotation Zrotation
									JOINT RightHandRing2
									{
										OFFSET -3.053307 0.000000 0.000000
										CHANNELS 3 Xrotation Yrotation Zrotation
										JOINT RightHandRing3
										{
											OFFSET -3.295807 0.000000 0.000000
											CHANNELS 3 Xrotation Yrotation Zrotation
											End Site
											{
												OFFSET 1.281006 3.013344 0.375733
											}
										}
									}
								}
								JOINT RightHandPinky1
								{
									OFFSET -10.518692 -0.960396 -5.730441
									CHANNELS 3 Xrotation Yrotation Zrotation
									JOINT RightHandPinky2
									{
										OFFSET -2.861649 0.000000 0.000000
										CHANNELS 3 Xrotation Yrotation Zrotation
										JOINT RightHandPinky3
										{
											OFFSET -2.863380 0.000000 0.000000
											CHANNELS 3 Xrotation Yrotation Zrotation
											End Site
											{
												OFFSET 0.843597 2.711159 0.369971
											}
										}
									}
								}
							}
							JOINT RSleeve
							{
								OFFSET -6.676277 -0.344902 -1.011730
								CHANNELS 3 Xrotation Yrotation Zrotation
								End Site
								{
									OFFSET 0.000000 14.885353 0.000000
								}
							}
						}
					}
				}
				JOINT Backpack
				{
					OFFSET 0.000000 -2.471497 36.677502
					CHANNELS 3 Xrotation Yrotation Zrotation
					End Site
					{
						OFFSET 0.000000 20.427315 0.000000
					}
				}
				JOINT Hood
				{
					OFFSET 0.000000 18.754097 -10.431000
					CHANNELS 3 Xrotation Yrotation Zrotation
					JOINT Hood1
					{
						OFFSET 0.000000 -5.011002 -7.685901
						CHANNELS 3 Xrotation Yrotation Zrotation
						End Site
						{
							OFFSET 0.000000 9.175140 0.000000
						}
					}
				}
				JOINT LHoodieString
				{
					OFFSET 5.250500 16.397697 3.089900
					CHANNELS 3 Xrotation Yrotation Zrotation
					JOINT LHoodieString1
					{
						OFFSET 0.257700 -6.364304 3.694600
						CHANNELS 3 Xrotation Yrotation Zrotation
						JOINT LHoodieString2
						{
							OFFSET 0.000000 -9.643799 2.679100
							CHANNELS 3 Xrotation Yrotation Zrotation
							End Site
							{
								OFFSET 0.000000 10.009018 0.000000
							}
						}
					}
				}
				JOINT RHoodieString
				{
					OFFSET -5.250500 16.397697 3.089900
					CHANNELS 3 Xrotation Yrotation Zrotation
					JOINT RHoodieString1
					{
						OFFSET -0.257700 -6.364304 3.694600
						CHANNELS 3 Xrotation Yrotation Zrotation
						JOINT RHoodieString2
						{
							OFFSET 0.000000 -9.643799 2.679100
							CHANNELS 3 Xrotation Yrotation Zrotation
							End Site
							{
								OFFSET 0.000000 10.009018 0.000000
							}
						}
					}
				}
			}
			JOINT LBackpack_Strap
			{
				OFFSET 15.223200 -7.719803 -6.610900
				CHANNELS 3 Xrotation Yrotation Zrotation
				End Site
				{
					OFFSET 0.000000 16.040596 0.000000
				}
			}
			JOINT RBackpack_Strap
			{
				OFFSET -15.223000 -7.719803 -6.610900
				CHANNELS 3 Xrotation Yrotation Zrotation
				End Site
				{
					OFFSET 0.000000 16.040596 0.000000
				}
			}
		}
	}
	JOINT BoyFacialAnim_Joint
	{
		OFFSET 1.000000 -82.208099 -1.550900
		CHANNELS 3 Xrotation Yrotation Zrotation
		End Site
		{
			OFFSET 0.000000 30.012791 0.000000
		}
	}
}
MOTION
Frames: 4
Frame Time: 0.033333
-7.826022 58.802765 94.154984 12.936033 64.408827 -2.845525 -0.000000 0.000002 -0.000001 -23.491563 9.615490 38.423192 38.425012 -5.384884 10.414665 -25.123454 -4.342513 -22.088770 0.000000 -0.000001 -0.000000 0.000000 -0.000001 -0.000000 0.000000 -0.000001 -0.000002 -68.817578 10.132989 -42.316478 82.432378 5.362863 -3.390231 -12.854298 -4.148581 19.753387 -0.000000 0.000002 0.000000 -0.000000 0.000002 0.000000 -0.000001 -0.000001 0.000000 8.335043 0.229209 3.468539 1.029858 0.162452 -2.018141 1.034499 0.117741 -2.021493 5.258858 -10.974267 5.507436 0.365946 -55.007123 13.845974 0.000000 0.000000 -0.000000 0.000000 0.000000 -0.000000 0.000000 0.000000 -0.000000 0.818989 -6.622800 -1.489786 -183.651779 -135.176383 -229.088192 0.000110 -105.221400 0.000102 49.234131 -22.508277 28.371371 -1.540039 3.690189 6.142349 3.939056 7.948698 0.746811 -0.000001 -0.000001 0.000005 0.000000 0.000013 0.000004 0.000007 -0.000012 -0.000041 -0.000001 0.000001 -0.000003 0.000004 -0.001927 0.015984 -0.000000 0.001952 -0.015986 0.000002 -0.000001 0.000002 0.000002 0.000009 -0.000001 0.000003 -0.000004 -0.000004 0.000000 -0.000001 -0.000001 -0.018080 4.054262 0.511061 -0.018085 -4.054249 -0.511059 0.000000 -0.000001 -0.000000 -0.000001 -0.000000 0.000000 0.423719 1.251313 0.506413 -81.302207 16.993077 15.422098 0.000002 25.454052 -0.000012 -83.123839 -22.706598 -17.930015 26.412953 -4.122951 1.532517 16.242142 -19.271425 1.408751 -0.000001 0.000002 -0.000003 1.644044 -4.494597 40.166925 1.644042 -4.494585 40.166898 0.000002 0.000002 0.000000 2.500934 -5.343867 50.134295 3.807046 -6.200764 63.065855 0.000000 0.000002 -0.000002 3.173017 -5.837380 57.024942 4.574212 -6.531950 69.976019 -0.000000 -0.000003 -0.000004 3.783310 -6.188700 62.845800 5.248998 -6.738256 75.810927 0.000001 0.000001 -0.000005 0.000001 -0.000001 0.000001 -0.000000 -0.000001 0.000001 -0.000000 -0.000001 0.000001 -0.000000 -0.000001 0.000001 -0.000000 -0.000001 0.000001 -0.000000 -0.000001 0.000001 -0.000000 0.000000 -0.000000 -0.000000 -0.000001 0.000001 -0.000000 -0.000001 0.000001 -0.000000 0.000000 -0.000000 0.000001 -0.000002 0.000000 0.000001 -0.000002 0.000000 -0.000000 0.000002 -0.000001 
-7.334537 58.768089 93.099594 9.916011 66.070640 -1.461951 -0.000000 0.000001 -0.000000 -26.320337 6.361446 38.798770 45.761407 -3.589249 10.443332 -26.488700 -4.987685 -20.638680 -0.000000 -0.000001 0.000001 -0.000000 -0.000001 0.000000 0.000000 0.000000 -0.000002 -65.589473 9.069180 -43.137965 80.912702 4.136438 -3.883924 -11.981193 -4.245792 22.069866 -0.000000 0.000003 -0.000000 -0.000000 0.000003 -0.000000 0.000001 -0.000003 0.000001 8.796568 0.728539 2.894036 1.050584 0.348663 -2.033915 1.060732 0.302684 -2.041224 5.118354 -11.193291 4.945710 -1.021992 -56.952791 14.023935 -0.000000 -0.000000 -0.000000 -0.000000 -0.000000 -0.000000 -0.000000 -0.000000 -0.000000 0.750078 -5.649976 -1.056529 -180.389777 -149.700876 -226.559806 0.000262 -105.336960 0.000294 39.027038 -18.616353 31.984236 -1.540041 3.690189 6.142353 3.939058 7.948702 0.746809 0.000001 0.000002 -0.000006 -0.000007 -0.000004 -0.000004 0.000000 0.000024 -0.000024 -0.000001 0.000000 -0.000004 0.000004 -0.001927 0.015987 0.000004 0.001936 -0.015982 0.000000 -0.000000 -0.000001 -0.000004 -0.000011 -0.000006 -0.000004 0.000001 0.000002 0.000001 0.000000 -0.000004 -0.018095 4.054257 0.511060 -0.018088 -4.054257 -0.511064 0.000001 -0.000000 -0.000002 -0.000000 0.000001 0.000000 0.203239 -0.480452 -1.543220 -86.580154 7.304580 18.525853 0.000010 28.986787 -0.000011 -79.619706 -23.141185 -19.090729 26.412955 -4.122952 1.532518 16.242144 -19.271423 1.408745 0.000000 -0.000001 0.000001 1.644052 -4.494597 40.166922 1.644046 -4.494583 40.166898 -0.000000 0.000002 0.000002 2.500937 -5.343867 50.134295 3.807049 -6.200762 63.065855 0.000003 0.000005 -0.000001 3.173026 -5.837380 57.024939 4.574211 -6.531952 69.976019 0.000001 0.000000 -0.000001 3.783313 -6.188700 62.845800 5.249000 -6.738249 75.810927 0.000001 0.000000 -0.000001 -0.000000 -0.000001 0.000000 0.000001 0.000001 -0.000000 0.000001 0.000001 -0.000000 0.000001 0.000001 -0.000000 0.000001 0.000001 -0.000000 0.000001 0.000001 -0.000000 0.000001 0.000001 -0.000000 0.000001 0.000001 -0.000000 0.000001 0.000001 -0.000000 0.000001 0.000001 -0.000000 0.000000 0.000001 0.000001 0.000000 0.000001 0.000001 -0.000000 0.000001 -0.000000 
-6.852962 58.661789 91.630363 7.024783 68.509331 -0.636101 -0.000000 0.000000 -0.000000 -30.405649 2.811890 39.392617 53.642950 -4.625996 10.335432 -26.820783 -3.665266 -20.413484 -0.000001 0.000000 -0.000001 -0.000001 0.000000 -0.000001 0.000001 -0.000001 -0.000002 -61.978687 7.386822 -44.382682 78.684107 2.700570 -4.402640 -10.540964 -4.284269 24.932467 -0.000000 -0.000000 -0.000000 -0.000000 -0.000000 -0.000000 -0.000000 -0.000002 -0.000000 9.143077 1.089334 1.954668 1.098145 0.480251 -1.820382 1.110084 0.438729 -1.830625 5.033893 -11.569474 4.166284 -1.303276 -59.767283 14.859818 -0.000000 0.000000 -0.000000 -0.000000 0.000000 -0.000000 -0.000000 0.000000 -0.000000 0.515315 -2.724880 0.991133 -179.821204 -157.096782 -217.381699 0.000163 -105.601193 0.000168 34.550495 -14.431425 38.178681 -1.540041 3.690188 6.142356 3.939055 7.948700 0.746811 -0.000002 -0.000001 -0.000001 -0.000003 -0.000010 0.000001 -0.000001 0.000009 -0.000034 -0.000000 0.000000 -0.000005 0.000004 -0.001926 0.015982 -0.000005 0.001927 -0.015973 0.000000 -0.000000 0.000000 -0.000002 -0.000010 -0.000006 -0.000003 0.000010 0.000003 0.000002 0.000000 0.000001 -0.018091 4.054247 0.511062 -0.018089 -4.054252 -0.511048 0.000001 0.000000 0.000001 -0.000002 -0.000001 -0.000001 -0.043998 -1.311758 -5.240925 -90.827377 -5.612036 17.631093 -0.000001 33.141256 0.000003 -77.001381 -24.348031 -17.714126 26.412963 -4.122954 1.532519 16.242144 -19.271420 1.408751 0.000001 0.000001 0.000000 1.644047 -4.494597 40.166929 1.644046 -4.494586 40.166901 -0.000000 -0.000001 0.000003 2.500939 -5.343870 50.134295 3.807048 -6.200762 63.065855 -0.000001 -0.000002 0.000001 3.173024 -5.837383 57.024942 4.574213 -6.531955 69.976019 -0.000001 0.000002 0.000001 3.783313 -6.188702 62.845800 5.249001 -6.738246 75.810927 -0.000004 -0.000001 0.000000 0.000000 -0.000004 -0.000000 0.000000 0.000000 -0.000000 0.000000 0.000000 -0.000000 0.000000 0.000000 -0.000000 0.000000 0.000000 -0.000000 0.000000 0.000000 -0.000000 -0.000000 -0.000001 -0.000000 0.000000 0.000000 -0.000000 0.000000 0.000000 -0.000000 -0.000000 -0.000001 -0.000000 0.000001 0.000001 -0.000001 0.000001 0.000001 -0.000001 -0.000000 0.000000 -0.000000 
-6.342262 58.723633 89.771957 3.351764 72.233540 -0.313451 0.000000 0.000002 -0.000000 -35.856861 -1.206489 40.494361 62.056531 -9.006182 9.953194 -25.534951 0.695367 -21.189390 -0.000000 -0.000000 -0.000002 -0.000000 -0.000000 -0.000001 -0.000000 -0.000000 -0.000002 -56.840868 4.378327 -45.352176 74.951047 0.616590 -4.919039 -7.228603 -3.820586 28.993453 0.000000 -0.000002 0.000000 0.000000 -0.000002 0.000000 0.000000 -0.000000 0.000002 9.566996 0.968534 1.283297 1.108276 0.409945 -1.123248 1.115120 0.382437 -1.132481 5.207944 -11.817259 3.133276 0.330462 -62.088913 16.858983 -0.000000 -0.000000 -0.000000 -0.000000 -0.000000 -0.000000 -0.000000 -0.000000 -0.000000 -0.084185 1.822984 4.948511 -182.104523 -153.765125 -205.189183 0.000118 -104.659931 0.000111 35.853200 -9.496791 41.170413 -1.540035 3.690187 6.142353 3.939060 7.948701 0.746811 -0.000002 0.000000 0.000002 -0.000002 -0.000007 0.000001 0.000001 0.000002 -0.000035 -0.000000 0.000001 0.000002 0.000003 -0.001928 0.015980 -0.000002 0.001921 -0.015984 -0.000001 0.000001 0.000000 0.000005 -0.000012 -0.000003 -0.000012 0.000022 -0.000028 0.000001 -0.000001 -0.000002 -0.018092 4.054249 0.511064 -0.018085 -4.054271 -0.511052 -0.000000 0.000001 0.000003 -0.000000 0.000001 -0.000000 -0.072111 -0.935785 -7.137785 -89.702739 -15.459452 12.398859 -0.000016 38.858869 0.000017 -76.895663 -25.941494 -15.435148 26.412955 -4.122952 1.532519 16.242144 -19.271423 1.408750 0.000000 0.000000 -0.000001 1.644044 -4.494597 40.166929 1.644044 -4.494582 40.166898 -0.000001 -0.000001 0.000002 2.500935 -5.343870 50.134302 3.807048 -6.200763 63.065855 0.000001 0.000001 -0.000000 3.173025 -5.837384 57.024942 4.574211 -6.531953 69.976019 -0.000004 0.000001 0.000001 3.783311 -6.188701 62.845807 5.249002 -6.738254 75.810920 0.000001 -0.000001 0.000000 0.000001 -0.000000 -0.000000 0.000001 0.000002 -0.000000 0.000001 0.000002 -0.000000 0.000001 0.000002 -0.000000 0.000001 0.000002 -0.000000 0.000001 0.000002 -0.000000 0.000001 -0.000000 -0.000000 0.000001 0.000002 -0.000000 0.000001 0.000002 -0.000000 0.000001 -0.000000 -0.000000 0.000001 0.000002 -0.000000 0.000001 0.000002 -0.000000 0.000000 0.000002 -0.000000 
